<svg width="48" height="35" viewBox="0 0 48 35" fill="none" xmlns="http://www.w3.org/2000/svg">
<circle cx="15" cy="20" r="15" fill="#28BBC5"/>
<path d="M22.6689 2.85561C22.9286 3.43354 22.7 4.11389 22.144 4.41749C20.0042 5.58799 15.1649 9.0044 14.7735 16.1627C14.7735 16.1627 13.7913 28.9066 27.382 28.9066C27.382 28.9066 42.2967 29.7168 43.7598 19.0798C43.7598 19.0798 47.4305 3.01472 29.2584 0.598733C29.2584 0.598733 25.4506 0.190887 23.2285 1.2736C22.6451 1.55891 22.4018 2.26304 22.667 2.85561H22.6689Z" fill="#F3F3F3"/>
<path d="M28.1243 29.4383C27.7055 29.4383 27.4366 29.4273 27.3653 29.4236C23.0692 29.4218 19.7369 28.1745 17.4618 25.7164C13.8588 21.8227 14.2356 16.3524 14.2539 16.1202C14.6581 8.69114 19.7296 5.14123 21.8914 3.96159C22.2078 3.78967 22.3395 3.39645 22.1913 3.06725C21.8054 2.20766 22.1602 1.21457 22.9979 0.80672C25.3279 -0.330861 29.1503 0.0623543 29.3113 0.0788145C35.1693 0.857929 39.4215 3.10566 41.9618 6.76347C45.7129 12.1661 44.3815 18.6569 44.2699 19.169C43.6335 23.7266 40.4859 26.9436 35.1638 28.4781C32.2339 29.3231 29.4375 29.4383 28.1261 29.4383H28.1243ZM23.1387 2.64111C23.5063 3.46047 23.1771 4.44076 22.3889 4.87055C20.3789 5.9679 15.6658 9.26725 15.2872 16.1897C15.2817 16.2537 14.9324 21.4642 18.2299 25.0178C20.3021 27.2527 23.382 28.3848 27.3799 28.3848C27.3891 28.3848 27.3982 28.3848 27.4074 28.3848C27.444 28.3848 31.1164 28.5677 34.9004 27.4722C39.8622 26.0365 42.6696 23.1871 43.2457 19.0044C43.2476 18.9897 43.2512 18.9751 43.253 18.9586C43.2677 18.8946 44.6704 12.4697 41.1041 7.34507C38.7375 3.94147 34.7285 1.84371 29.1887 1.10666C29.165 1.10483 25.5145 0.729906 23.4533 1.73398C23.1277 1.89309 22.9869 2.29911 23.1387 2.63929V2.64111Z" fill="black"/>
<path d="M29.1458 25.9127C35.8062 25.9127 41.2056 21.8783 41.2056 16.9017C41.2056 11.925 35.8062 7.89062 29.1458 7.89062C22.4853 7.89062 17.0859 11.925 17.0859 16.9017C17.0859 21.8783 22.4853 25.9127 29.1458 25.9127Z" fill="#0B1F4C"/>
<path d="M29.1555 26.4303C22.2203 26.4303 16.5781 22.1561 16.5781 16.9017C16.5781 11.6472 22.2203 7.37305 29.1555 7.37305C36.0907 7.37305 41.7329 11.6472 41.7329 16.9017C41.7329 22.1561 36.0907 26.4303 29.1555 26.4303ZM29.1555 8.40821C22.7928 8.40821 17.6151 12.2178 17.6151 16.8998C17.6151 21.5818 22.7928 25.3914 29.1555 25.3914C35.5183 25.3914 40.6959 21.5818 40.6959 16.8998C40.6959 12.2178 35.5183 8.40821 29.1555 8.40821V8.40821Z" fill="black"/>
<path d="M25.1484 17.5189C25.1688 15.8099 24.3436 14.4145 23.3053 14.4022C22.267 14.3898 21.4088 15.7651 21.3884 17.4741C21.3681 19.183 22.1933 20.5784 23.2315 20.5908C24.2698 20.6031 25.128 19.2278 25.1484 17.5189Z" fill="white"/>
<path d="M36.75 17.5189C36.7703 15.8099 35.9451 14.4145 34.9068 14.4022C33.8685 14.3898 33.0103 15.7651 32.99 17.4741C32.9696 19.183 33.7948 20.5784 34.8331 20.5908C35.8714 20.6031 36.7296 19.2278 36.75 17.5189Z" fill="white"/>
<path d="M43.6265 11.5043L45.7688 13.3451C46.1642 13.6847 46.4219 14.1565 46.4903 14.6743C46.599 15.4863 46.6992 16.9258 46.5501 19.1707C46.5099 19.7894 46.1971 20.3625 45.7 20.7338L42.9147 22.8142C42.9147 22.8142 45.3832 20.1212 43.6264 11.5025L43.6265 11.5043Z" fill="black"/>
<path d="M15.3415 22.4077L13.214 20.5499C12.8213 20.2071 12.5674 19.7332 12.5032 19.2149C12.401 18.4021 12.3123 16.9618 12.4793 14.7182C12.5244 14.0999 12.8418 13.5292 13.3418 13.1619L16.1438 11.1039C16.1438 11.1039 13.6538 13.7771 15.3416 22.4095L15.3415 22.4077Z" fill="black"/>
</svg>
